<mxfile host="Electron" modified="2024-04-22T14:15:36.043Z" agent="Mozilla/5.0 (Windows NT 10.0; Win64; x64) AppleWebKit/537.36 (KHTML, like Gecko) draw.io/24.2.5 Chrome/120.0.6099.109 Electron/28.1.0 Safari/537.36" etag="hR4aSlJgfIVV5CAggO3Q" version="24.2.5" type="device">
  <diagram name="PÃ¡gina-1" id="SVSHsIyv4kR4v3x8imGf">
    <mxGraphModel dx="1867" dy="873" grid="0" gridSize="10" guides="1" tooltips="1" connect="1" arrows="1" fold="1" page="0" pageScale="1" pageWidth="827" pageHeight="1169" math="0" shadow="0">
      <root>
        <mxCell id="0" />
        <mxCell id="1" parent="0" />
        <mxCell id="x0xRmid25TK1O1UKUqdS-3" value="" style="edgeStyle=orthogonalEdgeStyle;rounded=0;orthogonalLoop=1;jettySize=auto;html=1;" parent="1" source="x0xRmid25TK1O1UKUqdS-1" target="x0xRmid25TK1O1UKUqdS-2" edge="1">
          <mxGeometry relative="1" as="geometry" />
        </mxCell>
        <mxCell id="x0xRmid25TK1O1UKUqdS-1" value="USUARIO" style="rounded=1;whiteSpace=wrap;html=1;fillColor=#647687;fontColor=#ffffff;strokeColor=#314354;" parent="1" vertex="1">
          <mxGeometry x="-140" y="330" width="110" height="50" as="geometry" />
        </mxCell>
        <mxCell id="x0xRmid25TK1O1UKUqdS-45" value="" style="edgeStyle=orthogonalEdgeStyle;rounded=0;orthogonalLoop=1;jettySize=auto;html=1;" parent="1" source="x0xRmid25TK1O1UKUqdS-2" target="x0xRmid25TK1O1UKUqdS-13" edge="1">
          <mxGeometry relative="1" as="geometry" />
        </mxCell>
        <mxCell id="x0xRmid25TK1O1UKUqdS-2" value="MICROSERVICIO - API USER" style="rounded=1;whiteSpace=wrap;html=1;strokeColor=#006EAF;align=center;verticalAlign=middle;fontFamily=Helvetica;fontSize=12;fontColor=#ffffff;fillColor=#1ba1e2;arcSize=3;" parent="1" vertex="1">
          <mxGeometry x="10" y="325" width="150" height="60.66" as="geometry" />
        </mxCell>
        <mxCell id="x0xRmid25TK1O1UKUqdS-55" value="" style="edgeStyle=orthogonalEdgeStyle;rounded=0;orthogonalLoop=1;jettySize=auto;html=1;" parent="1" source="x0xRmid25TK1O1UKUqdS-13" target="x0xRmid25TK1O1UKUqdS-53" edge="1">
          <mxGeometry relative="1" as="geometry" />
        </mxCell>
        <mxCell id="x0xRmid25TK1O1UKUqdS-13" value="GESTOR DE LOS CONTROLADORES" style="whiteSpace=wrap;html=1;rounded=1;strokeColor=default;align=center;verticalAlign=middle;arcSize=3;fontFamily=Helvetica;fontSize=12;fontColor=default;fillColor=default;" parent="1" vertex="1">
          <mxGeometry x="200" y="325" width="130" height="60" as="geometry" />
        </mxCell>
        <mxCell id="x0xRmid25TK1O1UKUqdS-27" value="" style="edgeStyle=orthogonalEdgeStyle;rounded=0;orthogonalLoop=1;jettySize=auto;html=1;" parent="1" target="x0xRmid25TK1O1UKUqdS-25" edge="1">
          <mxGeometry relative="1" as="geometry">
            <mxPoint x="275" y="385.65999999999997" as="sourcePoint" />
          </mxGeometry>
        </mxCell>
        <mxCell id="x0xRmid25TK1O1UKUqdS-30" value="" style="edgeStyle=orthogonalEdgeStyle;rounded=0;orthogonalLoop=1;jettySize=auto;html=1;dashed=1;" parent="1" source="x0xRmid25TK1O1UKUqdS-25" target="x0xRmid25TK1O1UKUqdS-29" edge="1">
          <mxGeometry relative="1" as="geometry" />
        </mxCell>
        <mxCell id="x0xRmid25TK1O1UKUqdS-25" value="VALIDACION" style="rounded=1;whiteSpace=wrap;html=1;strokeColor=default;align=center;verticalAlign=middle;arcSize=3;fontFamily=Helvetica;fontSize=12;fontColor=default;fillColor=default;" parent="1" vertex="1">
          <mxGeometry x="210" y="434.33" width="130" height="60.67" as="geometry" />
        </mxCell>
        <mxCell id="x0xRmid25TK1O1UKUqdS-37" value="" style="edgeStyle=orthogonalEdgeStyle;rounded=0;orthogonalLoop=1;jettySize=auto;html=1;" parent="1" source="x0xRmid25TK1O1UKUqdS-29" edge="1">
          <mxGeometry relative="1" as="geometry">
            <mxPoint x="85.70000000000005" y="572.0400000000001" as="targetPoint" />
          </mxGeometry>
        </mxCell>
        <mxCell id="x0xRmid25TK1O1UKUqdS-39" value="SI" style="edgeLabel;html=1;align=center;verticalAlign=middle;resizable=0;points=[];fontStyle=1;fontSize=13;" parent="x0xRmid25TK1O1UKUqdS-37" vertex="1" connectable="0">
          <mxGeometry x="-0.3982" relative="1" as="geometry">
            <mxPoint y="3" as="offset" />
          </mxGeometry>
        </mxCell>
        <mxCell id="x0xRmid25TK1O1UKUqdS-29" value="INCORRECTO(S)" style="rhombus;whiteSpace=wrap;html=1;rounded=1;fillColor=#ffe6cc;strokeColor=#d79b00;fontSize=11;align=center;verticalAlign=middle;fontFamily=Helvetica;fontColor=default;" parent="1" vertex="1">
          <mxGeometry x="33.5" y="412.5" width="104.33" height="104.33" as="geometry" />
        </mxCell>
        <mxCell id="x0xRmid25TK1O1UKUqdS-41" value="" style="edgeStyle=orthogonalEdgeStyle;rounded=0;orthogonalLoop=1;jettySize=auto;html=1;entryX=0.5;entryY=1;entryDx=0;entryDy=0;dashed=1;exitX=0.5;exitY=0;exitDx=0;exitDy=0;" parent="1" source="x0xRmid25TK1O1UKUqdS-134" target="x0xRmid25TK1O1UKUqdS-1" edge="1">
          <mxGeometry relative="1" as="geometry">
            <mxPoint x="34.15999999999997" y="623.5" as="sourcePoint" />
            <mxPoint x="-46.5" y="611.5000000000001" as="targetPoint" />
          </mxGeometry>
        </mxCell>
        <mxCell id="x0xRmid25TK1O1UKUqdS-46" value="@Valid" style="rounded=1;whiteSpace=wrap;html=1;fontSize=10;fillColor=#e3c800;fontColor=#000000;strokeColor=#B09500;" parent="1" vertex="1">
          <mxGeometry x="190" y="421.33" width="45.34" height="22.67" as="geometry" />
        </mxCell>
        <mxCell id="x0xRmid25TK1O1UKUqdS-56" value="" style="edgeStyle=orthogonalEdgeStyle;rounded=0;orthogonalLoop=1;jettySize=auto;html=1;" parent="1" source="x0xRmid25TK1O1UKUqdS-53" target="x0xRmid25TK1O1UKUqdS-54" edge="1">
          <mxGeometry relative="1" as="geometry" />
        </mxCell>
        <mxCell id="x0xRmid25TK1O1UKUqdS-53" value="CONTRACTO" style="whiteSpace=wrap;html=1;rounded=1;strokeColor=default;align=center;verticalAlign=middle;arcSize=3;fontFamily=Helvetica;fontSize=12;fontColor=default;fillColor=default;" parent="1" vertex="1">
          <mxGeometry x="370" y="325.33" width="120" height="60" as="geometry" />
        </mxCell>
        <mxCell id="x0xRmid25TK1O1UKUqdS-96" value="" style="edgeStyle=orthogonalEdgeStyle;rounded=0;orthogonalLoop=1;jettySize=auto;html=1;" parent="1" source="x0xRmid25TK1O1UKUqdS-54" target="x0xRmid25TK1O1UKUqdS-61" edge="1">
          <mxGeometry relative="1" as="geometry" />
        </mxCell>
        <mxCell id="x0xRmid25TK1O1UKUqdS-54" value="SERVICIO" style="whiteSpace=wrap;html=1;rounded=1;strokeColor=default;align=center;verticalAlign=middle;arcSize=3;fontFamily=Helvetica;fontSize=12;fontColor=default;fillColor=default;" parent="1" vertex="1">
          <mxGeometry x="530" y="325.65999999999997" width="120" height="60" as="geometry" />
        </mxCell>
        <mxCell id="x0xRmid25TK1O1UKUqdS-63" value="" style="edgeStyle=orthogonalEdgeStyle;rounded=0;orthogonalLoop=1;jettySize=auto;html=1;" parent="1" source="x0xRmid25TK1O1UKUqdS-61" target="x0xRmid25TK1O1UKUqdS-62" edge="1">
          <mxGeometry relative="1" as="geometry" />
        </mxCell>
        <mxCell id="x0xRmid25TK1O1UKUqdS-61" value="createUser" style="whiteSpace=wrap;html=1;rounded=1;strokeColor=default;align=center;verticalAlign=middle;arcSize=3;fontFamily=Helvetica;fontSize=12;fontColor=default;fillColor=default;" parent="1" vertex="1">
          <mxGeometry x="750" y="330" width="100" height="50" as="geometry" />
        </mxCell>
        <mxCell id="x0xRmid25TK1O1UKUqdS-65" value="" style="edgeStyle=orthogonalEdgeStyle;rounded=0;orthogonalLoop=1;jettySize=auto;html=1;" parent="1" source="x0xRmid25TK1O1UKUqdS-62" target="x0xRmid25TK1O1UKUqdS-64" edge="1">
          <mxGeometry relative="1" as="geometry" />
        </mxCell>
        <mxCell id="x0xRmid25TK1O1UKUqdS-67" value="" style="edgeStyle=orthogonalEdgeStyle;rounded=0;orthogonalLoop=1;jettySize=auto;html=1;" parent="1" source="x0xRmid25TK1O1UKUqdS-62" target="x0xRmid25TK1O1UKUqdS-66" edge="1">
          <mxGeometry relative="1" as="geometry" />
        </mxCell>
        <mxCell id="x0xRmid25TK1O1UKUqdS-62" value="REPOSITORIO USER" style="whiteSpace=wrap;html=1;rounded=1;strokeColor=#10739e;align=center;verticalAlign=middle;arcSize=3;fontFamily=Helvetica;fontSize=12;fillColor=#b1ddf0;" parent="1" vertex="1">
          <mxGeometry x="900" y="330" width="100" height="50" as="geometry" />
        </mxCell>
        <mxCell id="x0xRmid25TK1O1UKUqdS-64" value="GUARDAR" style="whiteSpace=wrap;html=1;rounded=1;strokeColor=default;align=center;verticalAlign=middle;arcSize=3;fontFamily=Helvetica;fontSize=12;fontColor=default;fillColor=default;" parent="1" vertex="1">
          <mxGeometry x="900" y="425" width="100" height="50" as="geometry" />
        </mxCell>
        <mxCell id="x0xRmid25TK1O1UKUqdS-91" value="" style="edgeStyle=orthogonalEdgeStyle;rounded=0;orthogonalLoop=1;jettySize=auto;html=1;entryX=1;entryY=0.5;entryDx=0;entryDy=0;dashed=1;strokeColor=default;exitX=0.5;exitY=1;exitDx=0;exitDy=0;" parent="1" source="x0xRmid25TK1O1UKUqdS-136" edge="1">
          <mxGeometry relative="1" as="geometry">
            <mxPoint x="1360" y="393" as="sourcePoint" />
            <mxPoint x="137.15999999999997" y="623.5" as="targetPoint" />
            <Array as="points">
              <mxPoint x="1504" y="623" />
            </Array>
          </mxGeometry>
        </mxCell>
        <mxCell id="x0xRmid25TK1O1UKUqdS-139" value="" style="edgeStyle=orthogonalEdgeStyle;rounded=0;orthogonalLoop=1;jettySize=auto;html=1;" parent="1" source="x0xRmid25TK1O1UKUqdS-78" target="x0xRmid25TK1O1UKUqdS-138" edge="1">
          <mxGeometry relative="1" as="geometry" />
        </mxCell>
        <mxCell id="x0xRmid25TK1O1UKUqdS-78" value="GUARDAR TELEFONOS" style="whiteSpace=wrap;html=1;fontSize=12;fillColor=default;strokeColor=default;rounded=1;align=center;verticalAlign=middle;fontFamily=Helvetica;fontColor=default;arcSize=3;" parent="1" vertex="1">
          <mxGeometry x="1310" y="330" width="100" height="50" as="geometry" />
        </mxCell>
        <mxCell id="x0xRmid25TK1O1UKUqdS-82" value="" style="edgeStyle=orthogonalEdgeStyle;rounded=0;orthogonalLoop=1;jettySize=auto;html=1;" parent="1" source="x0xRmid25TK1O1UKUqdS-79" target="x0xRmid25TK1O1UKUqdS-78" edge="1">
          <mxGeometry relative="1" as="geometry" />
        </mxCell>
        <mxCell id="x0xRmid25TK1O1UKUqdS-88" value="SI" style="edgeLabel;html=1;align=center;verticalAlign=middle;resizable=0;points=[];fontStyle=1" parent="x0xRmid25TK1O1UKUqdS-82" vertex="1" connectable="0">
          <mxGeometry x="-0.709" relative="1" as="geometry">
            <mxPoint x="12" y="-1" as="offset" />
          </mxGeometry>
        </mxCell>
        <mxCell id="x0xRmid25TK1O1UKUqdS-87" value="" style="edgeStyle=orthogonalEdgeStyle;rounded=0;orthogonalLoop=1;jettySize=auto;html=1;entryX=1;entryY=0.5;entryDx=0;entryDy=0;dashed=1;" parent="1" source="x0xRmid25TK1O1UKUqdS-79" edge="1">
          <mxGeometry relative="1" as="geometry">
            <mxPoint x="137.15999999999997" y="623.5" as="targetPoint" />
            <Array as="points">
              <mxPoint x="1220" y="624" />
              <mxPoint x="137" y="624" />
            </Array>
          </mxGeometry>
        </mxCell>
        <mxCell id="x0xRmid25TK1O1UKUqdS-89" value="NO" style="edgeLabel;html=1;align=center;verticalAlign=middle;resizable=0;points=[];fontStyle=1" parent="x0xRmid25TK1O1UKUqdS-87" vertex="1" connectable="0">
          <mxGeometry x="-0.9722" y="-3" relative="1" as="geometry">
            <mxPoint x="3" as="offset" />
          </mxGeometry>
        </mxCell>
        <mxCell id="x0xRmid25TK1O1UKUqdS-94" value="CREACION DE USUARIO" style="swimlane;whiteSpace=wrap;html=1;fillColor=#008a00;strokeColor=#005700;fontColor=#ffffff;fontSize=15;" parent="1" vertex="1">
          <mxGeometry x="690" y="240" width="893" height="324" as="geometry" />
        </mxCell>
        <mxCell id="x0xRmid25TK1O1UKUqdS-66" value="Usuario guardado" style="rhombus;whiteSpace=wrap;html=1;rounded=1;strokeColor=#d79b00;align=center;verticalAlign=middle;fontFamily=Helvetica;fontSize=11;fontColor=default;fillColor=#ffe6cc;fontStyle=1" parent="x0xRmid25TK1O1UKUqdS-94" vertex="1">
          <mxGeometry x="339" y="72" width="86" height="86" as="geometry" />
        </mxCell>
        <mxCell id="x0xRmid25TK1O1UKUqdS-79" value="&lt;b style=&quot;font-size: 10px;&quot;&gt;Hay telefonos para agregar&lt;/b&gt;" style="rhombus;whiteSpace=wrap;html=1;rounded=1;strokeColor=#d79b00;align=center;verticalAlign=middle;fontFamily=Helvetica;fontSize=10;fontColor=default;fillColor=#ffe6cc;" parent="x0xRmid25TK1O1UKUqdS-94" vertex="1">
          <mxGeometry x="468" y="70.66000000000003" width="90" height="90" as="geometry" />
        </mxCell>
        <mxCell id="x0xRmid25TK1O1UKUqdS-80" value="" style="edgeStyle=orthogonalEdgeStyle;rounded=0;orthogonalLoop=1;jettySize=auto;html=1;fontStyle=1" parent="x0xRmid25TK1O1UKUqdS-94" source="x0xRmid25TK1O1UKUqdS-66" target="x0xRmid25TK1O1UKUqdS-79" edge="1">
          <mxGeometry relative="1" as="geometry" />
        </mxCell>
        <mxCell id="x0xRmid25TK1O1UKUqdS-81" value="SI" style="edgeLabel;html=1;align=center;verticalAlign=middle;resizable=0;points=[];fontStyle=1" parent="x0xRmid25TK1O1UKUqdS-80" vertex="1" connectable="0">
          <mxGeometry x="-0.5586" relative="1" as="geometry">
            <mxPoint x="11" as="offset" />
          </mxGeometry>
        </mxCell>
        <mxCell id="x0xRmid25TK1O1UKUqdS-109" value="" style="image;points=[];aspect=fixed;html=1;align=center;shadow=0;dashed=0;image=img/lib/allied_telesis/computer_and_terminals/VOIP_IP_phone.svg;" parent="x0xRmid25TK1O1UKUqdS-94" vertex="1">
          <mxGeometry x="501" y="48" width="30" height="45.6" as="geometry" />
        </mxCell>
        <mxCell id="x0xRmid25TK1O1UKUqdS-124" value="" style="strokeWidth=2;html=1;shape=mxgraph.flowchart.database;whiteSpace=wrap;fillColor=#b0e3e6;strokeColor=#0e8088;" parent="x0xRmid25TK1O1UKUqdS-94" vertex="1">
          <mxGeometry x="606" y="72" width="29" height="29" as="geometry" />
        </mxCell>
        <mxCell id="x0xRmid25TK1O1UKUqdS-98" value="" style="edgeStyle=orthogonalEdgeStyle;rounded=0;orthogonalLoop=1;jettySize=auto;html=1;entryX=1;entryY=0.5;entryDx=0;entryDy=0;dashed=1;" parent="1" source="x0xRmid25TK1O1UKUqdS-66" edge="1">
          <mxGeometry relative="1" as="geometry">
            <mxPoint x="137.15999999999997" y="623.5" as="targetPoint" />
            <Array as="points">
              <mxPoint x="1092" y="624" />
              <mxPoint x="137" y="624" />
            </Array>
          </mxGeometry>
        </mxCell>
        <mxCell id="x0xRmid25TK1O1UKUqdS-99" value="NO" style="edgeLabel;html=1;align=center;verticalAlign=middle;resizable=0;points=[];fontStyle=1" parent="x0xRmid25TK1O1UKUqdS-98" vertex="1" connectable="0">
          <mxGeometry x="-0.9753" y="1" relative="1" as="geometry">
            <mxPoint as="offset" />
          </mxGeometry>
        </mxCell>
        <mxCell id="x0xRmid25TK1O1UKUqdS-106" value="" style="html=1;whiteSpace=wrap;strokeColor=none;fillColor=#0079D6;labelPosition=center;verticalLabelPosition=middle;verticalAlign=top;align=center;fontSize=12;outlineConnect=0;spacingTop=-6;fontColor=#FFFFFF;sketch=0;shape=mxgraph.sitemap.services;" parent="1" vertex="1">
          <mxGeometry x="-6.5" y="316" width="40" height="23.34" as="geometry" />
        </mxCell>
        <mxCell id="x0xRmid25TK1O1UKUqdS-107" value="" style="html=1;verticalLabelPosition=bottom;align=center;labelBackgroundColor=#ffffff;verticalAlign=top;strokeWidth=2;strokeColor=#0080F0;shadow=0;dashed=0;shape=mxgraph.ios7.icons.user;" parent="1" vertex="1">
          <mxGeometry x="-153" y="316" width="30" height="30" as="geometry" />
        </mxCell>
        <mxCell id="x0xRmid25TK1O1UKUqdS-123" value="" style="strokeWidth=2;html=1;shape=mxgraph.flowchart.database;whiteSpace=wrap;fillColor=#b0e3e6;strokeColor=#0e8088;" parent="1" vertex="1">
          <mxGeometry x="888" y="410" width="28" height="28" as="geometry" />
        </mxCell>
        <mxCell id="x0xRmid25TK1O1UKUqdS-134" value="RESPUESTA DEL MENSAJE" style="rounded=1;whiteSpace=wrap;html=1;" parent="1" vertex="1">
          <mxGeometry x="-145" y="594" width="120" height="60" as="geometry" />
        </mxCell>
        <mxCell id="x0xRmid25TK1O1UKUqdS-105" value="" style="html=1;verticalLabelPosition=bottom;align=center;labelBackgroundColor=#ffffff;verticalAlign=top;strokeWidth=2;strokeColor=#0080F0;shadow=0;dashed=0;shape=mxgraph.ios7.icons.mail;" parent="1" vertex="1">
          <mxGeometry x="-156" y="589.82" width="30" height="16.5" as="geometry" />
        </mxCell>
        <mxCell id="x0xRmid25TK1O1UKUqdS-135" value="" style="edgeStyle=orthogonalEdgeStyle;rounded=0;orthogonalLoop=1;jettySize=auto;html=1;exitX=0.5;exitY=1;exitDx=0;exitDy=0;" parent="1" source="x0xRmid25TK1O1UKUqdS-138" target="x0xRmid25TK1O1UKUqdS-136" edge="1">
          <mxGeometry relative="1" as="geometry">
            <mxPoint x="1579" y="427" as="sourcePoint" />
          </mxGeometry>
        </mxCell>
        <mxCell id="x0xRmid25TK1O1UKUqdS-136" value="GUARDAR" style="whiteSpace=wrap;html=1;rounded=1;strokeColor=default;align=center;verticalAlign=middle;arcSize=3;fontFamily=Helvetica;fontSize=12;fontColor=default;fillColor=default;" parent="1" vertex="1">
          <mxGeometry x="1454" y="406.5" width="100" height="50" as="geometry" />
        </mxCell>
        <mxCell id="x0xRmid25TK1O1UKUqdS-137" value="" style="strokeWidth=2;html=1;shape=mxgraph.flowchart.database;whiteSpace=wrap;fillColor=#b0e3e6;strokeColor=#0e8088;" parent="1" vertex="1">
          <mxGeometry x="1442" y="391.5" width="28" height="28" as="geometry" />
        </mxCell>
        <mxCell id="x0xRmid25TK1O1UKUqdS-138" value="REPOSITORIO PHONE" style="whiteSpace=wrap;html=1;rounded=1;strokeColor=#10739e;align=center;verticalAlign=middle;arcSize=3;fontFamily=Helvetica;fontSize=12;fontColor=default;fillColor=#b1ddf0;" parent="1" vertex="1">
          <mxGeometry x="1454" y="330" width="100" height="50" as="geometry" />
        </mxCell>
        <mxCell id="JtYM52xih0uVJ5MW2DfC-4" value="" style="edgeStyle=orthogonalEdgeStyle;rounded=0;orthogonalLoop=1;jettySize=auto;html=1;" edge="1" parent="1" source="JtYM52xih0uVJ5MW2DfC-1" target="x0xRmid25TK1O1UKUqdS-134">
          <mxGeometry relative="1" as="geometry" />
        </mxCell>
        <mxCell id="JtYM52xih0uVJ5MW2DfC-1" value="REGISTRO EN LOG&lt;div&gt;(admcons_log)&lt;/div&gt;" style="rounded=1;whiteSpace=wrap;html=1;fillColor=#b1ddf0;strokeColor=#10739e;" vertex="1" parent="1">
          <mxGeometry x="17.83" y="594" width="120" height="60" as="geometry" />
        </mxCell>
        <mxCell id="JtYM52xih0uVJ5MW2DfC-3" value="" style="image;aspect=fixed;html=1;points=[];align=center;fontSize=12;image=img/lib/azure2/containers/Container_Registries.svg;" vertex="1" parent="1">
          <mxGeometry x="10" y="583" width="26" height="23.32" as="geometry" />
        </mxCell>
      </root>
    </mxGraphModel>
  </diagram>
</mxfile>
